<svg xmlns="http://www.w3.org/2000/svg" width="160" height="53" viewBox="0 0 160 53" fill="none">
  <path d="M6.10293 12C6.10293 8.13401 9.2907 5 13.223 5H47.8063C51.7386 5 54.9264 8.13401 54.9264 12V46C54.9264 49.866 51.7386 53 47.8063 53H13.223C9.2907 53 6.10293 49.866 6.10293 46V12Z" fill="#D20A2E"/>
  <path d="M0 7C0 3.13401 3.18777 0 7.12008 0H41.7034C45.6357 0 48.8234 3.13401 48.8234 7V41C48.8234 44.866 45.6357 48 41.7034 48H7.12008C3.18777 48 0 44.866 0 41V7Z" fill="#F6CED5"/>
  <path d="M70.2106 47.345C68.9629 47.345 67.8556 47.069 66.8886 46.517C65.9294 45.9573 65.1769 45.2175 64.631 44.2975C64.0852 43.3698 63.8122 42.354 63.8122 41.25C63.8122 40.4373 63.9682 39.663 64.2801 38.927C64.592 38.191 65.0326 37.5432 65.6019 36.9835C66.179 36.4162 66.8574 35.9715 67.6372 35.6495C68.4171 35.3198 69.2749 35.155 70.2106 35.155C71.4506 35.155 72.5501 35.431 73.5093 35.983C74.4763 36.535 75.2327 37.2748 75.7786 38.2025C76.3322 39.1302 76.6091 40.146 76.6091 41.25C76.6091 42.0627 76.4492 42.837 76.1295 43.573C75.8175 44.3013 75.3769 44.9492 74.8077 45.5165C74.2384 46.0838 73.5639 46.5323 72.784 46.862C72.0042 47.184 71.1464 47.345 70.2106 47.345ZM70.1989 44.769C70.8618 44.769 71.4506 44.6272 71.9652 44.3435C72.4877 44.0522 72.8971 43.6458 73.1935 43.1245C73.4898 42.5955 73.638 41.9707 73.638 41.25C73.638 40.5293 73.4898 39.9045 73.1935 39.3755C72.8971 38.8465 72.4916 38.4402 71.9769 38.1565C71.4622 37.8728 70.8735 37.731 70.2106 37.731C69.5478 37.731 68.9551 37.8728 68.4327 38.1565C67.918 38.4402 67.5125 38.8465 67.2161 39.3755C66.9276 39.9045 66.7833 40.5293 66.7833 41.25C66.7833 41.9707 66.9315 42.5955 67.2278 43.1245C67.5242 43.6458 67.9297 44.0522 68.4444 44.3435C68.959 44.6272 69.5439 44.769 70.1989 44.769Z" fill="#0A205A"/>
  <path d="M79.0737 47V35.5H82.0682V36.88C82.5361 36.2743 83.082 35.8373 83.7058 35.569C84.3375 35.293 84.9964 35.155 85.6827 35.155C86.7588 35.155 87.6478 35.3658 88.3497 35.7875C89.0593 36.2092 89.5857 36.7497 89.9288 37.409C90.2719 38.0683 90.4435 38.7583 90.4435 39.479V47H87.449V40.399C87.449 39.617 87.2189 38.996 86.7588 38.536C86.2987 38.076 85.6554 37.846 84.8288 37.846C84.2907 37.846 83.8111 37.9648 83.39 38.2025C82.9767 38.4325 82.6531 38.7583 82.4191 39.18C82.1852 39.6017 82.0682 40.0885 82.0682 40.6405V47H79.0737Z" fill="#0A205A"/>
  <path d="M104.402 47.345C103.201 47.345 102.249 47.0077 101.547 46.333C100.846 45.6583 100.495 44.6387 100.495 43.274V32.165H103.489V35.5H106.566V37.892H103.489V42.6875C103.489 43.4235 103.637 43.9448 103.934 44.2515C104.23 44.5505 104.639 44.7 105.162 44.7C105.427 44.7 105.677 44.6693 105.911 44.608C106.152 44.5467 106.375 44.4662 106.577 44.3665L107.045 46.7125C106.702 46.8888 106.3 47.0383 105.84 47.161C105.38 47.2837 104.901 47.345 104.402 47.345ZM98.0266 37.892V35.5H100.834V37.892H98.0266Z" fill="#0A205A"/>
  <path d="M114.955 47.345C113.684 47.345 112.569 47.092 111.609 46.586C110.65 46.0723 109.902 45.3593 109.363 44.447C108.833 43.5347 108.568 42.4728 108.568 41.2615C108.568 40.3722 108.72 39.5557 109.024 38.812C109.336 38.0683 109.773 37.4243 110.334 36.88C110.904 36.328 111.566 35.9025 112.323 35.6035C113.087 35.3045 113.922 35.155 114.826 35.155C115.809 35.155 116.686 35.3275 117.458 35.6725C118.23 36.0098 118.869 36.489 119.376 37.11C119.891 37.7233 120.25 38.444 120.452 39.272C120.663 40.0923 120.69 40.9893 120.534 41.963H111.387C111.379 42.5687 111.524 43.0977 111.82 43.55C112.124 44.0023 112.553 44.3588 113.107 44.6195C113.668 44.8725 114.327 44.999 115.083 44.999C115.754 44.999 116.397 44.9032 117.013 44.7115C117.63 44.5198 118.203 44.2362 118.733 43.8605L119.786 45.919C119.419 46.2103 118.963 46.4633 118.417 46.678C117.871 46.8927 117.294 47.0575 116.686 47.1725C116.086 47.2875 115.508 47.345 114.955 47.345ZM111.563 39.87H117.633C117.61 39.0957 117.349 38.49 116.85 38.053C116.351 37.6083 115.653 37.386 114.756 37.386C113.867 37.386 113.134 37.6083 112.557 38.053C111.98 38.49 111.648 39.0957 111.563 39.87Z" fill="#0A205A"/>
  <path d="M128.64 47.345C127.4 47.345 126.297 47.0805 125.33 46.5515C124.371 46.0148 123.614 45.2903 123.061 44.378C122.507 43.458 122.23 42.4153 122.23 41.25C122.23 40.3683 122.394 39.5595 122.721 38.8235C123.049 38.0798 123.509 37.4358 124.102 36.8915C124.694 36.3395 125.388 35.914 126.184 35.615C126.987 35.3083 127.86 35.155 128.804 35.155C129.623 35.155 130.383 35.2623 131.085 35.477C131.787 35.6917 132.43 36.0213 133.015 36.466L131.623 38.6855C131.257 38.3635 130.839 38.1258 130.371 37.9725C129.911 37.8115 129.428 37.731 128.921 37.731C128.157 37.731 127.498 37.869 126.944 38.145C126.398 38.421 125.977 38.8197 125.681 39.341C125.384 39.8623 125.236 40.4948 125.236 41.2385C125.236 42.3425 125.564 43.2088 126.219 43.8375C126.882 44.4585 127.782 44.769 128.921 44.769C129.49 44.769 130.028 44.6655 130.535 44.4585C131.042 44.2515 131.483 43.9678 131.857 43.6075L133.19 45.8385C132.551 46.3062 131.837 46.6742 131.05 46.9425C130.262 47.2108 129.459 47.345 128.64 47.345Z" fill="#0A205A"/>
  <path d="M135.435 47V30.44H138.43V37.9265L137.81 37.2365C138.325 36.5542 138.941 36.0367 139.658 35.684C140.376 35.3313 141.148 35.155 141.974 35.155C143.05 35.155 143.943 35.3658 144.653 35.7875C145.37 36.2092 145.908 36.7573 146.267 37.432C146.626 38.1067 146.805 38.8197 146.805 39.571V47H143.811V40.4105C143.811 39.6515 143.573 39.0343 143.097 38.559C142.629 38.0837 141.986 37.846 141.167 37.846C140.621 37.8383 140.142 37.9495 139.728 38.1795C139.315 38.4095 138.995 38.7392 138.769 39.1685C138.543 39.5902 138.43 40.0847 138.43 40.652V47H135.435Z" fill="#0A205A"/>
  <path d="M73.6746 14.256C73.1321 14.256 72.6113 14.3413 72.1122 14.512C71.6348 14.6827 71.2117 14.9387 70.8428 15.28C70.4956 15.6 70.2135 16.0053 69.9965 16.496C69.7795 16.9867 69.671 17.5627 69.671 18.224C69.671 19.5467 70.0508 20.5387 70.8103 21.2C71.5914 21.8613 72.5354 22.192 73.642 22.192C74.293 22.192 74.8572 22.1173 75.3346 21.968C75.812 21.8187 76.2351 21.6587 76.604 21.488C77.038 21.7867 77.3634 22.1173 77.5804 22.48C77.7974 22.8213 77.9059 23.2373 77.9059 23.728C77.9059 24.6027 77.4828 25.2853 76.6365 25.776C75.7902 26.2453 74.6185 26.48 73.1212 26.48C71.7542 26.48 70.5173 26.288 69.4107 25.904C68.304 25.4987 67.3492 24.944 66.5463 24.24C65.7652 23.5147 65.1576 22.6507 64.7236 21.648C64.2896 20.6453 64.0726 19.536 64.0726 18.32C64.0726 16.912 64.3005 15.6853 64.7561 14.64C65.2335 13.5733 65.8737 12.6987 66.6765 12.016C67.4794 11.3333 68.4016 10.8213 69.4432 10.48C70.5065 10.1387 71.624 9.968 72.7957 9.968C74.3581 9.968 75.5624 10.2453 76.4087 10.8C77.255 11.3547 77.6781 12.0693 77.6781 12.944C77.6781 13.3493 77.5804 13.7333 77.3851 14.096C77.1899 14.4373 76.962 14.736 76.7016 14.992C76.3327 14.8213 75.8879 14.6613 75.3671 14.512C74.8463 14.3413 74.2822 14.256 73.6746 14.256Z" fill="#0A205A"/>
  <path d="M96.3045 25.968C96.0875 26.032 95.7403 26.096 95.2629 26.16C94.8072 26.224 94.3298 26.256 93.8308 26.256C93.3534 26.256 92.9194 26.224 92.5288 26.16C92.1599 26.096 91.8453 25.968 91.5849 25.776C91.3245 25.584 91.1183 25.328 90.9665 25.008C90.8363 24.6667 90.7712 24.2293 90.7712 23.696V16.592C90.7712 15.7173 90.5433 15.1093 90.0876 14.768C89.6536 14.4053 89.1112 14.224 88.4602 14.224C88.0262 14.224 87.6139 14.2773 87.2233 14.384C86.8327 14.4907 86.5181 14.6187 86.2794 14.768V25.968C86.0624 26.032 85.7152 26.096 85.2378 26.16C84.7822 26.224 84.3048 26.256 83.8057 26.256C83.3283 26.256 82.8943 26.224 82.5037 26.16C82.1348 26.096 81.8202 25.968 81.5598 25.776C81.2994 25.584 81.0933 25.328 80.9414 25.008C80.8112 24.6667 80.7461 24.2293 80.7461 23.696V5.136C80.9848 5.09333 81.332 5.04 81.7877 4.976C82.265 4.89067 82.7424 4.848 83.2198 4.848C83.6972 4.848 84.1203 4.88 84.4892 4.944C84.8798 5.008 85.2053 5.136 85.4657 5.328C85.7261 5.52 85.9214 5.78667 86.0516 6.128C86.2035 6.448 86.2794 6.87467 86.2794 7.408V10.544C86.5615 10.4373 86.9846 10.32 87.5488 10.192C88.1347 10.0427 88.7748 9.968 89.4692 9.968C91.6174 9.968 93.2883 10.5013 94.4817 11.568C95.6969 12.6133 96.3045 14.1813 96.3045 16.272V25.968Z" fill="#0A205A"/>
  <path d="M108.086 26.512C106.806 26.512 105.612 26.3413 104.506 26C103.421 25.6373 102.466 25.104 101.641 24.4C100.838 23.696 100.198 22.8107 99.7209 21.744C99.2652 20.6773 99.0373 19.4293 99.0373 18C99.0373 16.592 99.2652 15.3867 99.7209 14.384C100.198 13.36 100.817 12.528 101.576 11.888C102.336 11.2267 103.204 10.7467 104.18 10.448C105.157 10.128 106.155 9.968 107.175 9.968C108.325 9.968 109.366 10.1387 110.299 10.48C111.254 10.8213 112.068 11.2907 112.74 11.888C113.435 12.4853 113.966 13.2 114.335 14.032C114.726 14.864 114.921 15.7707 114.921 16.752C114.921 17.4773 114.715 18.032 114.303 18.416C113.89 18.8 113.315 19.0453 112.578 19.152L104.538 20.336C104.777 21.04 105.265 21.5733 106.003 21.936C106.741 22.2773 107.587 22.448 108.542 22.448C109.431 22.448 110.267 22.3413 111.048 22.128C111.851 21.8933 112.502 21.6267 113.001 21.328C113.348 21.5413 113.641 21.84 113.88 22.224C114.118 22.608 114.238 23.0133 114.238 23.44C114.238 24.4 113.782 25.1147 112.871 25.584C112.176 25.9467 111.395 26.192 110.527 26.32C109.659 26.448 108.845 26.512 108.086 26.512ZM107.175 13.936C106.654 13.936 106.198 14.0213 105.808 14.192C105.439 14.3627 105.135 14.5867 104.896 14.864C104.657 15.12 104.473 15.4187 104.343 15.76C104.234 16.08 104.169 16.4107 104.148 16.752L109.713 15.856C109.648 15.4293 109.41 15.0027 108.997 14.576C108.585 14.1493 107.977 13.936 107.175 13.936Z" fill="#0A205A"/>
  <path d="M123.118 25.968C122.901 26.032 122.554 26.096 122.076 26.16C121.621 26.224 121.143 26.256 120.644 26.256C120.167 26.256 119.733 26.224 119.342 26.16C118.973 26.096 118.659 25.968 118.398 25.776C118.138 25.584 117.932 25.328 117.78 25.008C117.65 24.6667 117.585 24.2293 117.585 23.696V14.096C117.585 13.6053 117.671 13.1893 117.845 12.848C118.04 12.4853 118.312 12.1653 118.659 11.888C119.006 11.6107 119.429 11.3653 119.928 11.152C120.449 10.9173 121.002 10.7147 121.588 10.544C122.174 10.3733 122.782 10.2453 123.411 10.16C124.04 10.0533 124.669 10 125.299 10C126.34 10 127.165 10.2027 127.772 10.608C128.38 10.992 128.684 11.632 128.684 12.528C128.684 12.8267 128.64 13.1253 128.554 13.424C128.467 13.7013 128.358 13.9573 128.228 14.192C127.772 14.192 127.306 14.2133 126.829 14.256C126.351 14.2987 125.885 14.3627 125.429 14.448C124.973 14.5333 124.539 14.6293 124.127 14.736C123.736 14.8213 123.4 14.928 123.118 15.056V25.968Z" fill="#0A205A"/>
  <path d="M136.182 25.968C135.965 26.032 135.618 26.096 135.14 26.16C134.685 26.224 134.207 26.256 133.708 26.256C133.231 26.256 132.797 26.224 132.406 26.16C132.037 26.096 131.723 25.968 131.462 25.776C131.202 25.584 130.996 25.328 130.844 25.008C130.714 24.6667 130.649 24.2293 130.649 23.696V14.096C130.649 13.6053 130.736 13.1893 130.909 12.848C131.104 12.4853 131.376 12.1653 131.723 11.888C132.07 11.6107 132.493 11.3653 132.992 11.152C133.513 10.9173 134.066 10.7147 134.652 10.544C135.238 10.3733 135.846 10.2453 136.475 10.16C137.104 10.0533 137.734 10 138.363 10C139.404 10 140.229 10.2027 140.837 10.608C141.444 10.992 141.748 11.632 141.748 12.528C141.748 12.8267 141.705 13.1253 141.618 13.424C141.531 13.7013 141.422 13.9573 141.292 14.192C140.837 14.192 140.37 14.2133 139.893 14.256C139.415 14.2987 138.949 14.3627 138.493 14.448C138.037 14.5333 137.603 14.6293 137.191 14.736C136.8 14.8213 136.464 14.928 136.182 15.056V25.968Z" fill="#0A205A"/>
  <path d="M147.013 22.032C146.774 21.4987 146.514 20.9013 146.232 20.24C145.971 19.5787 145.689 18.8213 145.386 17.968C145.103 17.1147 144.8 16.144 144.474 15.056C144.17 13.9467 143.845 12.6773 143.498 11.248C143.801 10.9493 144.203 10.6933 144.702 10.48C145.223 10.2453 145.787 10.128 146.395 10.128C147.154 10.128 147.783 10.288 148.282 10.608C148.781 10.9067 149.15 11.4827 149.389 12.336L151.96 21.136H152.091C152.351 20.4107 152.601 19.6213 152.839 18.768C153.1 17.9147 153.349 17.04 153.588 16.144C153.827 15.2267 154.044 14.32 154.239 13.424C154.456 12.5067 154.64 11.6107 154.792 10.736C155.573 10.3307 156.43 10.128 157.364 10.128C158.123 10.128 158.752 10.288 159.251 10.608C159.75 10.928 160 11.4827 160 12.272C160 12.848 159.924 13.52 159.772 14.288C159.62 15.0347 159.414 15.8347 159.154 16.688C158.915 17.5413 158.622 18.4267 158.275 19.344C157.949 20.24 157.602 21.1253 157.233 22C156.864 22.8747 156.485 23.7067 156.094 24.496C155.704 25.264 155.324 25.9573 154.955 26.576C154.347 27.6213 153.783 28.4747 153.262 29.136C152.742 29.7973 152.243 30.3093 151.765 30.672C151.288 31.056 150.81 31.312 150.333 31.44C149.856 31.5893 149.356 31.664 148.836 31.664C147.924 31.664 147.187 31.3973 146.622 30.864C146.058 30.3307 145.722 29.6373 145.613 28.784C146.308 28.2507 147.002 27.6533 147.696 26.992C148.391 26.352 149.02 25.6907 149.584 25.008C149.215 24.9013 148.814 24.656 148.38 24.272C147.968 23.8667 147.512 23.12 147.013 22.032Z" fill="#0A205A"/>
  <path fill-rule="evenodd" clip-rule="evenodd" d="M23.2579 9.12325C19.6533 10.5597 17.1213 12.7867 15.6616 15.5832L15.5882 15.7235C14.7542 17.3986 14.282 19.2169 14.1998 21.07C14.1434 22.1183 14.1864 23.1879 14.3288 24.2787L14.3333 24.3L14.3378 24.334C12.3495 24.991 10.6691 26.2991 9.59437 28.0264C8.51963 29.7538 8.11999 31.7887 8.46629 33.7706C8.8126 35.7525 9.88248 37.5532 11.4863 38.8537C13.0901 40.1541 15.1242 40.8702 17.2281 40.875C18.686 40.877 20.1219 40.536 21.4091 39.8822C22.6963 39.2285 23.7951 38.282 24.6085 37.1265C24.693 37.0075 24.7746 36.885 24.8532 36.7589C26.4568 38.0452 28.484 38.7502 30.5782 38.75C31.8793 38.7486 33.1642 38.4748 34.3425 37.9479C35.5207 37.421 36.5637 36.6537 37.398 35.7002C38.2322 34.7467 38.8374 33.6301 39.1709 32.4291C39.5045 31.2281 39.5583 29.9718 39.3285 28.7488C39.0987 27.5257 38.5909 26.3657 37.841 25.3503C37.091 24.335 36.1171 23.489 34.9877 22.872C33.8584 22.255 32.6012 21.8819 31.3046 21.7791C30.008 21.6763 28.7036 21.8463 27.4832 22.277C26.9058 22.1001 26.3489 21.8672 25.8211 21.5821C25.49 21.4061 25.1751 21.2035 24.8799 20.9765C24.0974 20.3899 23.4733 19.6328 23.0599 18.7686C22.3857 17.3449 22.27 15.5407 22.9531 13.505C23.2438 14.2742 23.5998 14.979 24.0211 15.6194C24.5106 16.3716 25.0831 17.0367 25.7388 17.6147C26.5477 18.3327 27.4755 18.9179 28.4845 19.3466C29.1535 19.6342 29.8514 19.8616 30.5782 20.0287C31.3543 20.2073 32.1448 20.3231 32.9412 20.3751C33.7437 20.4275 34.5595 20.4275 35.3887 20.3751L35.4421 20.3709C36.1406 20.3236 36.8363 20.2449 37.527 20.135C37.7432 20.1007 37.9503 20.0261 38.1363 19.9154C38.3223 19.8046 38.4837 19.66 38.6112 19.4897C38.7387 19.3194 38.8298 19.1268 38.8793 18.9228C38.9288 18.7189 38.9358 18.5076 38.8998 18.3011C38.7703 17.5547 38.5715 16.8208 38.3057 16.1081C37.8384 14.854 37.1077 13.7042 36.1586 12.7294C35.3711 11.9422 34.4542 11.2832 33.444 10.7786C30.7295 9.40587 27.3586 9.00212 23.9432 9C23.709 8.99483 23.474 9.03682 23.2579 9.12325ZM26.8313 13.8981C27.4343 14.851 28.2881 15.6363 29.3077 16.1761L29.3522 16.1974C29.8581 16.4637 30.4106 16.6783 31.0099 16.8412C32.2247 17.1727 33.6221 17.2917 35.1707 17.194L35.095 17.0006C34.5845 15.7093 33.6421 14.615 32.4139 13.8875C32.2409 13.784 32.0643 13.6862 31.8843 13.5942C31.3796 13.3422 30.8534 13.1318 30.3112 12.9652C29.0875 12.5912 27.6857 12.3617 26.1282 12.2576L26.028 12.2512L26.0903 12.4212C26.2995 12.9681 26.5457 13.4604 26.829 13.8981M19.1572 16.1464C19.1572 16.5714 19.1839 16.9921 19.2373 17.4086C19.3598 18.3566 19.6337 19.2811 20.0494 20.1499C20.4365 20.9502 20.9456 21.6914 21.5602 22.3492C22.0393 22.8663 22.5815 23.3331 23.1867 23.7496C23.4982 23.9621 23.826 24.1626 24.1701 24.351C23.7054 24.8107 23.2963 25.3189 22.9508 25.8661C21.456 24.6668 19.5898 23.9702 17.6397 23.8835C17.5765 23.3938 17.5357 22.9018 17.5173 22.4087C17.5055 21.99 17.5122 21.571 17.5373 21.1529C17.6053 19.7651 17.9575 18.4034 18.5742 17.1451L18.592 17.1111C18.7583 16.7782 18.9471 16.4559 19.1572 16.1464ZM25.256 28.6987C25.9823 30.1476 26.2639 31.7634 26.0681 33.3589C26.7368 34.2432 27.6743 34.9094 28.7533 35.2672C29.8322 35.6249 31.0003 35.6568 32.0989 35.3585C33.1975 35.0601 34.1733 34.4461 34.8938 33.5997C35.6143 32.7533 36.0445 31.7156 36.126 30.6276C36.2075 29.5396 35.9363 28.454 35.3493 27.5183C34.7624 26.5826 33.888 25.8421 32.8451 25.3974C31.8022 24.9528 30.6412 24.8255 29.5199 25.0329C28.3986 25.2403 27.3713 25.7724 26.5776 26.5567L26.5732 26.561C25.9636 27.1643 25.5123 27.8969 25.256 28.6987ZM22.7906 32.4536V32.375C22.7797 30.9695 22.1861 29.6254 21.1397 28.637C20.0932 27.6487 18.6793 27.0966 17.2076 27.1018C15.7359 27.107 14.3263 27.669 13.2876 28.6648C12.2489 29.6605 11.6656 31.0088 11.6656 32.4143C11.6656 33.8199 12.2489 35.1681 13.2876 36.1639C14.3263 37.1596 15.7359 37.7216 17.2076 37.7268C18.6793 37.732 20.0932 37.18 21.1397 36.1916C22.1861 35.2033 22.7797 33.8591 22.7906 32.4536Z" fill="#D20A2E"/>
</svg>