<svg width="18" height="18" viewBox="0 0 18 18" fill="none" xmlns="http://www.w3.org/2000/svg">
<g clip-path="url(#clip0_1006_106)">
<path fill-rule="evenodd" clip-rule="evenodd" d="M12.9697 5.46967C13.2626 5.17678 13.7374 5.17678 14.0303 5.46967L17.0303 8.46967C17.3232 8.76256 17.3232 9.23744 17.0303 9.53033L14.0303 12.5303C13.7374 12.8232 13.2626 12.8232 12.9697 12.5303C12.6768 12.2374 12.6768 11.7626 12.9697 11.4697L15.4393 9L12.9697 6.53033C12.6768 6.23744 12.6768 5.76256 12.9697 5.46967Z" fill="#DA1E28"/>
<path fill-rule="evenodd" clip-rule="evenodd" d="M0.75 9C0.75 8.58579 1.08579 8.25 1.5 8.25H16.5C16.9142 8.25 17.25 8.58579 17.25 9C17.25 9.41421 16.9142 9.75 16.5 9.75H1.5C1.08579 9.75 0.75 9.41421 0.75 9Z" fill="#DA1E28"/>
</g>
<defs>
<clipPath id="clip0_1006_106">
<rect width="18" height="18" fill="white"/>
</clipPath>
</defs>
</svg>
